<?xml version="1.0" standalone="no"?>
<!DOCTYPE svg PUBLIC "-//W3C//DTD SVG 20010904//EN"
 "http://www.w3.org/TR/2001/REC-SVG-20010904/DTD/svg10.dtd">
<svg version="1.0" xmlns="http://www.w3.org/2000/svg"
 width="285.000000pt" height="285.000000pt" viewBox="0 0 285.000000 285.000000"
 preserveAspectRatio="xMidYMid meet">
<metadata>
Created by potrace 1.11, written by Peter Selinger 2001-2013
</metadata>
<g transform="translate(0.000000,285.000000) scale(0.100000,-0.100000)"
fill="#000000" stroke="none">
<path d="M1170 2690 c-14 -11 -28 -20 -33 -20 -4 0 -24 -11 -45 -23 -33 -22
-229 -135 -342 -199 -25 -14 -101 -58 -170 -98 -69 -41 -144 -84 -167 -97 -58
-33 -66 -45 -47 -72 20 -28 24 -27 201 75 80 46 148 84 151 84 3 0 13 6 21 14
9 7 36 25 61 38 25 14 61 35 80 47 19 11 42 24 50 28 8 3 31 16 50 28 19 12
55 33 80 46 174 94 210 125 178 157 -17 17 -39 15 -68 -8z"/>
<path d="M1511 2701 c-20 -13 -7 -55 21 -69 26 -13 67 -37 118 -69 19 -11 52
-30 73 -42 79 -45 114 -65 177 -101 36 -21 81 -47 100 -57 19 -11 76 -44 125
-73 50 -29 115 -66 145 -83 30 -16 60 -34 67 -39 20 -16 53 1 53 27 0 26 -19
41 -115 95 -33 18 -74 41 -91 51 -17 9 -42 23 -55 31 -13 7 -26 15 -29 18 -5
5 -16 12 -99 58 -25 14 -79 45 -119 69 -41 24 -75 43 -77 43 -2 0 -60 34 -130
75 -129 77 -140 81 -164 66z"/>
<path d="M1359 2583 c-3 -10 -4 -229 -3 -486 1 -448 5 -516 29 -477 6 9 11
886 6 968 -1 19 -28 14 -32 -5z"/>
<path d="M2170 2074 c-19 -8 -42 -22 -52 -31 -10 -9 -18 -13 -18 -10 0 4 -16
-4 -35 -18 -20 -13 -49 -30 -65 -37 -17 -7 -30 -16 -30 -20 0 -5 -4 -8 -9 -8
-5 0 -49 -23 -98 -51 -140 -82 -143 -84 -243 -141 -102 -60 -129 -91 -135
-155 -9 -94 79 -172 171 -153 33 7 645 356 684 390 12 10 28 39 35 64 38 125
-81 224 -205 170z"/>
<path d="M397 2049 c-26 -15 -38 -54 -27 -83 9 -23 68 -67 160 -118 25 -13
175 -100 334 -191 159 -92 299 -167 311 -167 51 0 92 73 62 111 -6 8 -55 41
-107 71 -165 97 -384 224 -400 231 -8 4 -28 16 -45 26 -117 72 -228 131 -247
131 -13 0 -31 -5 -41 -11z"/>
<path d="M198 1952 c-13 -9 -26 -20 -30 -26 -3 -5 -6 -220 -6 -478 0 -421 2
-470 16 -488 23 -28 76 -33 104 -10 l23 18 1 471 c2 446 1 472 -17 495 -24 30
-62 38 -91 18z"/>
<path d="M2475 1918 c-39 -11 -68 -36 -89 -76 -15 -29 -16 -75 -14 -416 3
-373 4 -385 24 -413 49 -65 123 -82 192 -43 74 42 75 49 75 467 0 402 -3 423
-58 459 -34 22 -93 32 -130 22z"/>
<path d="M1040 1273 c-107 -63 -203 -117 -212 -120 -10 -3 -18 -9 -18 -14 0
-5 -4 -9 -9 -9 -5 0 -104 -54 -219 -121 -147 -85 -209 -125 -205 -135 7 -20
15 -18 82 21 33 20 64 35 67 35 4 -1 10 2 13 7 3 6 31 23 61 40 46 25 207 117
350 201 19 12 93 54 164 94 71 40 131 79 134 86 14 37 -30 19 -208 -85z"/>
<path d="M1502 1364 c2 -8 28 -30 59 -47 52 -30 376 -217 409 -237 105 -63
217 -124 223 -122 4 1 7 -2 7 -8 0 -5 4 -10 9 -10 5 0 39 -18 75 -40 72 -44
81 -47 89 -26 4 10 -38 40 -146 102 -185 106 -190 108 -302 174 -49 29 -108
63 -130 75 -56 31 -147 84 -165 95 -8 6 -22 13 -30 17 -8 3 -27 15 -42 25 -32
22 -61 24 -56 2z"/>
<path d="M1310 1281 c-19 -10 -45 -33 -58 -51 l-23 -34 3 -397 c3 -386 4 -398
24 -426 64 -86 182 -86 238 1 14 22 26 54 27 71 0 16 1 191 1 387 l1 358 -27
41 c-44 66 -119 86 -186 50z"/>
<path d="M2200 772 c-19 -10 -78 -43 -130 -74 -155 -91 -204 -119 -222 -125
-10 -3 -18 -9 -18 -14 0 -5 -4 -9 -10 -9 -5 0 -55 -27 -111 -60 -55 -33 -103
-60 -106 -60 -3 0 -18 -9 -34 -21 -31 -22 -58 -66 -65 -106 -12 -63 48 -147
113 -159 52 -10 86 1 188 61 53 31 105 62 118 69 12 6 48 27 80 46 32 19 70
42 85 50 165 91 253 144 278 167 51 46 61 103 33 174 -25 64 -131 97 -199 61z"/>
<path d="M375 722 c-61 -61 -18 -100 310 -282 62 -34 227 -130 255 -148 14 -9
27 -17 30 -17 3 0 37 -19 77 -43 102 -60 118 -65 153 -47 16 8 31 24 35 35 10
32 -4 78 -26 85 -10 4 -19 11 -19 16 0 5 -4 9 -9 9 -8 0 -371 206 -586 333
-158 93 -180 99 -220 59z"/>
</g>
</svg>
